<?xml version="1.0" encoding="utf-8"?>
<!-- Generator: Adobe Illustrator 25.0.0, SVG Export Plug-In . SVG Version: 6.00 Build 0)  -->
<svg version="1.1" id="Layer_1" xmlns="http://www.w3.org/2000/svg" xmlns:xlink="http://www.w3.org/1999/xlink" x="0px" y="0px"
	 viewBox="0 0 408 182" style="enable-background:new 0 0 408 182;" xml:space="preserve">
<style type="text/css">
	.st0{fill:#3F0080;}
	.st1{fill:#6775FF;}
	.st2{fill:#553980;}
	.st3{fill:#FFFFFF;}
	.st4{fill:#00A280;}
	.st5{fill:url(#SVGID_1_);}
	.st6{fill:#806D95;}
	.st7{fill:url(#SVGID_2_);}
	.st8{fill:#9580A9;}
	.st9{fill:url(#SVGID_3_);}
	.st10{fill:url(#SVGID_4_);}
</style>
<g>
	<g>
		<path class="st0" d="M65.94,151.07v3.66c0,0.6-0.29,0.89-0.89,0.89c-0.72,0.05-1.81,0.09-3.3,0.09c-4.28,0-7.53-0.8-9.72-2.4
			c-2.2-1.61-3.3-4.58-3.3-8.93v-28.27c0-0.24-0.12-0.36-0.36-0.36h-5.44c-0.6,0-0.89-0.3-0.89-0.89v-3.49
			c0-0.59,0.29-0.89,0.89-0.89h5.44c0.24,0,0.36-0.12,0.36-0.36V93.97c0-0.59,0.29-0.89,0.89-0.89h4.37c0.6,0,0.9,0.3,0.9,0.89
			v48.46c0,2.85,0.63,4.85,1.91,6.02c1.28,1.16,3.29,1.74,6.03,1.74h2.23C65.64,150.18,65.94,150.48,65.94,151.07z"/>
	</g>
	<g>
		<path class="st0" d="M73.07,154.64v-43.35c0-0.59,0.3-0.89,0.89-0.89h4.55c0.59,0,0.89,0.3,0.89,0.89v43.35
			c0,0.59-0.3,0.89-0.89,0.89h-4.55C73.37,155.53,73.07,155.24,73.07,154.64z"/>
	</g>
	<g>
		<path class="st0" d="M88.68,154.73V94.08c0-0.59,0.3-0.89,0.89-0.89h4.55c0.59,0,0.89,0.3,0.89,0.89v60.65
			c0,0.59-0.3,0.89-0.89,0.89h-4.55C88.98,155.62,88.68,155.33,88.68,154.73z"/>
	</g>
	<g>
		<path class="st0" d="M102.95,154.73V94.08c0-0.59,0.3-0.89,0.89-0.89h4.55c0.59,0,0.89,0.3,0.89,0.89v60.65
			c0,0.59-0.3,0.89-0.89,0.89h-4.55C103.25,155.62,102.95,155.33,102.95,154.73z"/>
	</g>
	<g>
		<path class="st0" d="M151.83,124.47c-0.72-5-2.53-8.86-5.44-11.59c-2.92-2.74-7.08-4.1-12.49-4.1c-4.34,0-8.05,1.15-11.11,3.48
			c-3.06,2.32-5.09,5.41-6.1,9.27c-0.36,1.25-0.59,2.66-0.67,4.24c-0.09,1.59-0.13,3.62-0.13,6.11c0,5.35,0.53,9.46,1.61,12.3
			c1.25,3.52,3.3,6.24,6.15,8.21c2.86,1.97,6.4,2.98,10.62,3.03c3.87,0,7.28-0.81,10.25-2.45c2.98-1.63,5.2-3.88,6.69-6.73
			c0.24-0.53,0.12-0.94-0.36-1.25l-3.48-2.05c-0.48-0.29-0.89-0.17-1.25,0.36c-1.06,2.09-2.55,3.69-4.46,4.82
			c-1.9,1.13-4.09,1.69-6.59,1.69c-3.33,0-6.07-0.77-8.21-2.32c-2.14-1.54-3.54-3.65-4.19-6.33c-0.21-0.8-0.36-2.44-0.47-4.92
			c-0.01-0.14-0.02-0.28-0.02-0.43c-0.02-0.31,0-7.97,0.01-8.03c0.13-2.29,0.35-3.99,0.65-5.08c0.6-2.55,1.86-4.59,3.8-6.11
			c1.92-1.51,4.35-2.27,7.27-2.27c3.03,0,5.54,0.79,7.54,2.37c1.99,1.57,3.31,3.69,3.96,6.37c0.24,1.13,0.42,3.03,0.54,5.71
			c0,0.23-0.12,0.35-0.36,0.35h-13.87c-1.48,0-2.68,1.2-2.68,2.68v0c0,1.48,1.2,2.68,2.68,2.68h19.59c0.49,0,0.89-0.4,0.89-0.89
			v-2.86C152.19,128.22,152.07,126.15,151.83,124.47z"/>
	</g>
	<g>
		<path class="st0" d="M188.62,114.06c2.82,2.8,4.24,6.54,4.24,11.24v29.43c0,0.59-0.3,0.89-0.89,0.89h-4.55
			c-0.6,0-0.89-0.3-0.89-0.89v-28.19c0-3.27-1-5.95-2.99-8.03c-1.99-2.08-4.56-3.12-7.72-3.12c-3.27,0-5.92,1.01-7.94,3.03
			c-2.02,2.02-3.03,4.67-3.03,7.94v28.36c0,0.59-0.3,0.89-0.89,0.89h-4.55c-0.59,0-0.89-0.3-0.89-0.89V94.08
			c0-0.59,0.3-0.89,0.89-0.89h4.55c0.59,0,0.89,0.3,0.89,0.89v21.14c0,0.12,0.04,0.21,0.13,0.27c0.09,0.06,0.16,0.03,0.22-0.09
			c2.62-3.69,6.63-5.53,12.04-5.53C182,109.87,185.8,111.26,188.62,114.06z"/>
	</g>
	<g>
		<path class="st0" d="M59.49,115.76h7.85c0.73,0,1.33-0.6,1.33-1.33v-2.63c0-0.73-0.6-1.33-1.33-1.33h-7.85
			c-0.73,0-1.33,0.6-1.33,1.33v2.63C58.16,115.16,58.76,115.76,59.49,115.76z"/>
	</g>
	<g>
		<path class="st0" d="M73.07,94.78v9.39c0,0.88,0.71,1.59,1.59,1.59h3.15c0.88,0,1.59-0.71,1.59-1.59v-9.39
			c0-0.88-0.71-1.59-1.59-1.59h-3.15C73.78,93.19,73.07,93.9,73.07,94.78z"/>
	</g>
</g>
<g>
	<g>
		<path class="st1" d="M192.91,58.76V79.1h-27.94c-3.58,0-6.81-1.51-9.04-3.96c-2.25,2.45-5.47,3.96-9.06,3.96h-9.31
			c-3.58,0-6.81-1.51-9.04-3.96c-2.25,2.45-5.47,3.96-9.06,3.96H73c-3.56,0-6.79-1.53-9.04-3.96c-2.15,2.35-5.21,3.84-8.64,3.94
			h-0.58c-0.1,0.02-0.2,0.02-0.28,0.02c-6.83,0-12.34-5.49-12.38-12.32V56.13h0.02c-0.02-0.08-0.02-0.18-0.02-0.28
			c0-6.83,5.53-12.38,12.38-12.38h12.82v12.46c0,1.75-1.43,3.18-3.18,3.18h-0.26c-1.77,0-3.18-1.43-3.18-3.18V50.1h-6.19
			c-3.18,0-5.77,2.59-5.77,5.75c0,0.1,0,0.2,0.02,0.28v10.65c0.04,3.16,2.59,5.71,5.75,5.71v-0.04h0.86
			c2.91-0.18,5.21-2.55,5.33-5.47v-1.65c0-0.64,0.52-1.15,1.15-1.15h4.32c0.64,0,1.15,0.52,1.15,1.15v1.41c0,0.08,0,0.16-0.02,0.24
			v0.06c0.18,3.03,2.67,5.41,5.73,5.43h46.47c3.04,0,5.55-2.37,5.73-5.37c0.02-0.04,0.02-0.08,0.02-0.12h-0.02v-39.8
			c0-0.64,0.52-1.15,1.15-1.15h4.32c0.64,0,1.15,0.52,1.15,1.15v39.8c0.12,3.06,2.65,5.49,5.73,5.49h9.31
			c3.08,0,5.61-2.43,5.73-5.49V59.3c0-0.64,0.52-1.15,1.15-1.15h4.32c0.64,0,1.15,0.52,1.15,1.15v7.68h-0.02
			c0,0.04,0,0.08,0.02,0.12c0.18,3.01,2.69,5.37,5.73,5.37h21.32V58.76c0-0.64,0.52-1.15,1.15-1.15h4.32
			C192.4,57.61,192.91,58.12,192.91,58.76z"/>
	</g>
	<g>
		<path class="st1" d="M176.57,49.65v3.3c0,0.92,0.75,1.66,1.66,1.66h13.02c0.92,0,1.66-0.75,1.66-1.66v-3.3
			c0-0.92-0.75-1.66-1.66-1.66h-13.02C177.31,47.99,176.57,48.73,176.57,49.65z"/>
	</g>
	<g>
		<path class="st1" d="M134.76,83.94v3.3c0,0.92,0.75,1.66,1.66,1.66h13.02c0.92,0,1.66-0.75,1.66-1.66v-3.3
			c0-0.92-0.75-1.66-1.66-1.66h-13.02C135.51,82.28,134.76,83.02,134.76,83.94z"/>
	</g>
	<g>
		<path class="st1" d="M55.17,79.08v0.02c0.06,0,0.1,0,0.16-0.02H55.17z"/>
	</g>
	<g>
		<path class="st1" d="M125.21,66.98v0.12c0.02-0.04,0.02-0.08,0.02-0.12H125.21z"/>
	</g>
	<g>
		<path class="st1" d="M159.22,66.98c0,0.04,0,0.08,0.02,0.12v-0.12H159.22z"/>
	</g>
</g>
<g>
	<g>
		<g>
			<path class="st4" d="M358.61,106.08c-13.72,11.41-27.66,10.24-44.49-5.42c-14.96-13.93-22-32.19-54.07-4.34
				c-3.65,3.17-8.5,6.2-11.91,8.19c0.62-0.52,1.27-1.1,1.93-1.76c11.84-11.86,25.27-39.97,43.57-39.12
				c21.96,1,25.08,70.31,64.05,43.14C357.99,106.54,358.3,106.32,358.61,106.08z"/>
			<linearGradient id="SVGID_1_" gradientUnits="userSpaceOnUse" x1="297.9434" y1="24.469" x2="304.3231" y2="115.7031">
				<stop  offset="8.524463e-08" style="stop-color:#553980"/>
				<stop  offset="0.5114" style="stop-color:#6C5B97"/>
				<stop  offset="1" style="stop-color:#8480AF"/>
			</linearGradient>
			<path class="st5" d="M358.83,105.89C358.83,105.89,358.83,105.89,358.83,105.89c-0.07,0.07-0.15,0.12-0.22,0.19
				c-0.31,0.24-0.62,0.46-0.93,0.69c-38.97,27.18-42.09-42.14-64.05-43.14c-18.3-0.84-31.72,27.27-43.57,39.12
				c-0.65,0.65-1.31,1.24-1.93,1.76c-7.18,5.82-12.07,1.84-11.81-13.24c-1.17-37.09,29.52-66.97,66.37-66.97
				c30.79,0,56.72,20.86,64.41,49.23C370.3,85.31,368.25,98.44,358.83,105.89z"/>
			<path class="st6" d="M355.84,108.53c-0.66,0.43-1.3,0.9-1.97,1.3c-1.34,0.84-2.73,1.61-4.19,2.24c-2.9,1.29-6.11,2.1-9.39,2.01
				c-1.63-0.04-3.27-0.34-4.83-0.85c-1.56-0.52-3.04-1.25-4.41-2.13c-2.75-1.76-5.03-4.1-6.98-6.61c-3.89-5.07-6.63-10.76-9.54-16.3
				c-2.9-5.53-5.83-11.12-9.63-16.02c-1.91-2.42-4.09-4.66-6.68-6.1c-1.29-0.72-2.7-1.15-4.13-1.26l-0.54-0.04L293,64.78
				c-0.37,0.01-0.74,0-1.11,0.02c-0.74,0.09-1.48,0.13-2.2,0.31c-2.93,0.56-5.67,1.93-8.18,3.62c-2.5,1.71-4.81,3.75-6.99,5.93
				c-4.36,4.36-8.2,9.3-12.07,14.2c-1.93,2.46-3.89,4.92-5.88,7.34c-2.01,2.41-8.33,8.23-8.33,8.23c2.08-2.34,5.71-6.31,7.54-8.84
				c1.84-2.52,3.61-5.11,5.43-7.66c3.63-5.1,7.39-10.18,11.82-14.75c2.24-2.25,4.63-4.4,7.34-6.16c2.71-1.73,5.71-3.17,8.97-3.73
				c0.8-0.18,1.63-0.21,2.45-0.29c0.41-0.02,0.82,0,1.23,0l0.62,0.01l0.63,0.07c1.69,0.19,3.31,0.77,4.73,1.63
				c1.43,0.85,2.67,1.92,3.77,3.09c1.11,1.17,2.09,2.43,3,3.73c1.84,2.59,3.35,5.35,4.87,8.09l4.46,8.27
				c0.75,1.37,1.53,2.73,2.32,4.08c0.8,1.34,1.62,2.67,2.46,3.98c1.69,2.62,3.47,5.17,5.47,7.5c1.97,2.35,4.16,4.52,6.66,6.18
				c2.5,1.66,5.36,2.73,8.36,2.92c1.49,0.09,3-0.01,4.5-0.26c1.5-0.24,2.97-0.7,4.42-1.2c0.72-0.27,1.44-0.55,2.15-0.87
				c0.72-0.29,1.41-0.64,2.11-0.99c1.39-0.7,3.67-2.31,5.01-3.11C358.55,106.13,356.48,108.07,355.84,108.53z"/>
			<linearGradient id="SVGID_2_" gradientUnits="userSpaceOnUse" x1="309.4056" y1="88.8944" x2="296.1956" y2="156.8541">
				<stop  offset="0.2101" style="stop-color:#9580AE"/>
				<stop  offset="0.7349" style="stop-color:#886BA1"/>
				<stop  offset="1" style="stop-color:#805F9A"/>
			</linearGradient>
			<path class="st7" d="M367.2,100.13c0,0-12.06,27.03-45.54,19.86c-11.65-2.49-21.28-9.7-29.55-18.28
				c-11.14-11.56-18.88-11.59-44.27,7.7c-4.8,3.65-4.95,12.02-1.44,16.92c8.16,11.39,23.36,30.02,56.01,30.41
				C302.41,156.75,356.46,157.62,367.2,100.13z"/>
			<path class="st8" d="M367.2,100.13c-1.17,2.69-2.76,5.19-4.57,7.5c-1.82,2.31-3.89,4.43-6.2,6.28c-4.61,3.69-10.17,6.21-16,7.3
				c-5.84,1.13-11.88,0.8-17.66-0.34c-5.83-1.14-11.39-3.51-16.38-6.67c-4.99-3.19-9.46-7.11-13.57-11.32
				c-2.02-2.11-4.1-4.12-6.49-5.69c-2.38-1.56-5.11-2.57-7.95-2.66c-2.84-0.11-5.69,0.6-8.39,1.61c-2.7,1.04-5.3,2.37-7.83,3.82
				c-5.07,2.89-9.85,6.29-14.61,9.7c4.58-3.64,9.29-7.15,14.28-10.25c2.51-1.53,5.11-2.92,7.86-4.04c2.74-1.09,5.68-1.9,8.71-1.85
				c1.51,0.02,3.02,0.27,4.47,0.74c1.44,0.47,2.8,1.16,4.07,1.96c2.53,1.63,4.69,3.71,6.73,5.81c4.09,4.14,8.51,7.96,13.42,11.05
				c4.87,3.12,10.25,5.46,15.92,6.61c5.67,1.18,11.54,1.47,17.25,0.52C351.72,118.4,361.88,110.54,367.2,100.13z"/>
		</g>
	</g>
</g>
</svg>
